<svg xmlns="http://www.w3.org/2000/svg" xmlns:xlink="http://www.w3.org/1999/xlink" width="196" zoomAndPan="magnify" viewBox="0 0 147 48" height="64" preserveAspectRatio="xMidYMid meet" version="1.0"><defs><g/><clipPath id="6b9a8b1b84"><path d="M 1.5 9 L 145.5 9 L 145.5 47.019531 L 1.5 47.019531 Z M 1.5 9 " clip-rule="nonzero"/></clipPath><clipPath id="e8351954d7"><rect x="0" width="145" y="0" height="39"/></clipPath></defs><g clip-path="url(#6b9a8b1b84)"><g transform="matrix(1, 0, 0, 1, 1, 9)"><g clip-path="url(#e8351954d7)"><g fill="#ffffff" fill-opacity="1"><g transform="translate(0.499999, 30.59128)"><g><path d="M 2.046875 -13.34375 L 6.40625 -13.34375 C 6.539062 -10.40625 7.476562 -8.050781 9.21875 -6.28125 C 10.957031 -4.519531 13.320312 -3.640625 16.3125 -3.640625 C 18.394531 -3.640625 20.191406 -4.0625 21.703125 -4.90625 C 23.210938 -5.75 24.375 -6.945312 25.1875 -8.5 C 26 -10.050781 26.40625 -11.878906 26.40625 -13.984375 C 26.40625 -17.054688 25.554688 -19.515625 23.859375 -21.359375 C 22.171875 -23.203125 19.851562 -24.175781 16.90625 -24.28125 L 16.90625 -28.375 C 19.664062 -28.289062 22.070312 -27.65625 24.125 -26.46875 C 26.1875 -25.28125 27.796875 -23.625 28.953125 -21.5 C 30.117188 -19.375 30.703125 -16.867188 30.703125 -13.984375 C 30.703125 -10.960938 30.113281 -8.375 28.9375 -6.21875 C 27.757812 -4.070312 26.09375 -2.429688 23.9375 -1.296875 C 21.789062 -0.160156 19.25 0.40625 16.3125 0.40625 C 13.53125 0.40625 11.082031 -0.160156 8.96875 -1.296875 C 6.863281 -2.429688 5.207031 -4.023438 4 -6.078125 C 2.800781 -8.140625 2.148438 -10.5625 2.046875 -13.34375 Z M 2.046875 -13.34375 "/></g></g></g><g fill="#ffffff" fill-opacity="1"><g transform="translate(32.6854, 30.59128)"><g><path d="M 0.875 -23.765625 L 0.875 -27.96875 L 22.40625 -27.96875 L 22.40625 -23.765625 Z M 9.53125 0 L 9.53125 -18.796875 L 13.828125 -18.796875 L 13.828125 0 Z M 9.53125 0 "/></g></g></g><g fill="#ffffff" fill-opacity="1"><g transform="translate(55.531817, 30.59128)"><g><path d="M 3.328125 0 L 3.328125 -13.59375 L 13.109375 -13.59375 C 14.203125 -13.59375 15.207031 -13.769531 16.125 -14.125 C 17.050781 -14.488281 17.796875 -15.070312 18.359375 -15.875 C 18.921875 -16.675781 19.203125 -17.726562 19.203125 -19.03125 C 19.203125 -20.425781 18.921875 -21.492188 18.359375 -22.234375 C 17.796875 -22.984375 17.050781 -23.507812 16.125 -23.8125 C 15.207031 -24.125 14.1875 -24.28125 13.0625 -24.28125 L 3.328125 -24.28125 L 3.328125 -27.96875 L 14.03125 -27.96875 C 17.050781 -27.96875 19.4375 -27.285156 21.1875 -25.921875 C 22.9375 -24.566406 23.8125 -22.328125 23.8125 -19.203125 C 23.8125 -16.148438 22.921875 -13.835938 21.140625 -12.265625 C 19.359375 -10.691406 16.988281 -9.90625 14.03125 -9.90625 L 7.65625 -9.90625 L 7.65625 0 Z M 3.328125 0 "/></g></g></g><g fill="#ffffff" fill-opacity="1"><g transform="translate(80.101746, 30.59128)"><g><path d="M 6.328125 -14.625 L 2.203125 -14.625 C 2.285156 -17.488281 2.921875 -19.941406 4.109375 -21.984375 C 5.296875 -24.023438 6.953125 -25.597656 9.078125 -26.703125 C 11.203125 -27.816406 13.679688 -28.375 16.515625 -28.375 C 18.785156 -28.375 20.832031 -28.078125 22.65625 -27.484375 C 24.488281 -26.898438 26.019531 -25.945312 27.25 -24.625 C 28.476562 -23.300781 29.347656 -21.503906 29.859375 -19.234375 L 25.25 -19.234375 C 24.53125 -21.160156 23.375 -22.550781 21.78125 -23.40625 C 20.1875 -24.257812 18.441406 -24.6875 16.546875 -24.6875 C 14.597656 -24.6875 12.875 -24.242188 11.375 -23.359375 C 9.882812 -22.484375 8.695312 -21.28125 7.8125 -19.75 C 6.9375 -18.226562 6.441406 -16.519531 6.328125 -14.625 Z M 10.0625 0 L 25.6875 -11.46875 L 16.109375 -11.46875 L 16.109375 -14.3125 L 30.140625 -14.3125 L 30.140625 0 L 26.21875 0 L 26.21875 -7.578125 L 15.875 0 Z M 10.0625 0 "/></g></g></g><g fill="#ffffff" fill-opacity="1"><g transform="translate(112.287147, 30.59128)"><g><path d="M 6.328125 -14.625 L 2.203125 -14.625 C 2.285156 -17.488281 2.921875 -19.941406 4.109375 -21.984375 C 5.296875 -24.023438 6.953125 -25.597656 9.078125 -26.703125 C 11.203125 -27.816406 13.679688 -28.375 16.515625 -28.375 C 18.785156 -28.375 20.832031 -28.078125 22.65625 -27.484375 C 24.488281 -26.898438 26.019531 -25.945312 27.25 -24.625 C 28.476562 -23.300781 29.347656 -21.503906 29.859375 -19.234375 L 25.25 -19.234375 C 24.53125 -21.160156 23.375 -22.550781 21.78125 -23.40625 C 20.1875 -24.257812 18.441406 -24.6875 16.546875 -24.6875 C 14.597656 -24.6875 12.875 -24.242188 11.375 -23.359375 C 9.882812 -22.484375 8.695312 -21.28125 7.8125 -19.75 C 6.9375 -18.226562 6.441406 -16.519531 6.328125 -14.625 Z M 10.0625 0 L 25.6875 -11.46875 L 16.109375 -11.46875 L 16.109375 -14.3125 L 30.140625 -14.3125 L 30.140625 0 L 26.21875 0 L 26.21875 -7.578125 L 15.875 0 Z M 10.0625 0 "/></g></g></g></g></g></g></svg>